<svg width="404" height="405" viewBox="0 0 404 405" fill="none" xmlns="http://www.w3.org/2000/svg">
<circle cx="202.6" cy="200.343" r="88" transform="rotate(-22.5 202.6 200.343)" stroke="#407BFF" stroke-width="5" stroke-linecap="round" stroke-dasharray="12 24"/>
<path d="M59.0225 318.495C53.8212 322.645 46.0936 320.652 43.5474 314.505L9.04199 231.201C6.509 225.086 10.509 218.242 17.0801 217.447L85.4275 209.181C89.8819 208.642 94.1499 211.136 95.867 215.281L115.97 263.815C117.676 267.932 116.451 272.68 112.968 275.459L59.0225 318.495Z" fill="#AAC5FF"/>
<path d="M319.495 349.349C323.644 354.55 321.652 362.278 315.505 364.824L232.201 399.33C226.086 401.863 219.241 397.863 218.447 391.291L210.181 322.944C209.642 318.49 212.136 314.222 216.281 312.505L264.815 292.401C268.932 290.696 273.68 291.92 276.459 295.404L319.495 349.349Z" fill="#AAC5FF"/>
<path d="M345.349 81.2881C350.55 77.1387 358.278 79.1313 360.824 85.2785L395.33 168.582C397.863 174.697 393.863 181.542 387.291 182.336L318.944 190.603C314.49 191.141 310.222 188.647 308.505 184.502L288.401 135.968C286.696 131.851 287.92 127.103 291.404 124.324L345.349 81.2881Z" fill="#407BFF"/>
<path d="M83.2881 55.022C79.1387 49.8207 81.1313 42.0932 87.2785 39.5469L170.582 5.0415C176.697 2.50852 183.542 6.50849 184.336 13.0796L192.603 81.427C193.141 85.8815 190.647 90.1494 186.502 91.8665L137.968 111.97C133.851 113.675 129.103 112.451 126.324 108.967L83.2881 55.022Z" fill="#407BFF"/>
<path d="M13.6045 182.726C6.99257 181.982 2.93737 175.109 5.48362 168.962L39.989 85.6583C42.522 79.5432 50.1903 77.5317 55.3987 81.6163L109.573 124.1C113.103 126.869 114.358 131.65 112.641 135.796L92.5372 184.33C90.832 188.446 86.6086 190.938 82.1805 190.44L13.6045 182.726Z" fill="#407BFF"/>
<path d="M390.561 216.768C397.173 217.512 401.229 224.385 398.682 230.532L364.177 313.836C361.644 319.951 353.976 321.962 348.767 317.878L294.593 275.394C291.062 272.625 289.808 267.844 291.525 263.698L311.629 215.164C313.334 211.048 317.557 208.556 321.985 209.054L390.561 216.768Z" fill="#D63604"/>
<path d="M183.71 391.492C182.966 398.104 176.093 402.16 169.946 399.613L86.6423 365.108C80.5272 362.575 78.5157 354.907 82.6003 349.698L125.084 295.524C127.853 291.994 132.635 290.739 136.78 292.456L185.314 312.56C189.43 314.265 191.922 318.488 191.424 322.916L183.71 391.492Z" fill="#AAC5FF"/>
<path d="M222.37 14.6229C223.114 8.01088 229.987 3.95568 236.134 6.50193L319.438 41.0073C325.553 43.5403 327.564 51.2086 323.48 56.417L280.996 110.591C278.227 114.122 273.446 115.376 269.3 113.659L220.766 93.5555C216.65 91.8503 214.158 87.6269 214.656 83.1989L222.37 14.6229Z" fill="#407BFF"/>
</svg>
